<?xml version="1.0" encoding="utf-8"?>
<!-- Generator: Adobe Illustrator 18.1.0, SVG Export Plug-In . SVG Version: 6.00 Build 0)  -->
<!DOCTYPE svg PUBLIC "-//W3C//DTD SVG 1.1//EN" "http://www.w3.org/Graphics/SVG/1.1/DTD/svg11.dtd">
<svg version="1.1" xmlns="http://www.w3.org/2000/svg" xmlns:xlink="http://www.w3.org/1999/xlink" x="0px" y="0px"
	 viewBox="0 0 10 10" enable-background="new 0 0 10 10" xml:space="preserve">
<g id="レイヤー_1" display="none">
	
		<rect x="-1.5" y="4.7" transform="matrix(0.7071 0.7071 -0.7071 0.7071 4.9375 -2.0452)" display="inline" fill="#fbc02d" width="12.9" height="0.5"/>
	
		<rect x="4.7" y="-1.5" transform="matrix(0.7071 0.7071 -0.7071 0.7071 4.9375 -2.0452)" display="inline" fill="#fbc02d" width="0.5" height="12.9"/>
</g>
<g id="レイヤー_2" display="none">
	<polyline display="inline" fill="none" stroke="#fbc02d" stroke-miterlimit="10" points="0.5,0 0.5,9.5 10,9.5 	"/>
	<line display="inline" fill="none" stroke="#fbc02d" stroke-miterlimit="10" x1="2.6" y1="7.2" x2="9.2" y2="0.7"/>
	<polygon display="inline" fill="#fbc02d" points="10,0 10,3.6 6.4,0 	"/>
</g>
<g id="レイヤー_3">
	<g>
		<path fill="#fbc02d" d="M9,3.4C9,3.2,8.8,3,8.6,3H6.2L5.4,0.8c-0.1-0.4-0.7-0.4-0.9,0L3.8,3H1.4C1.2,3,1,3.2,1,3.4
			c-0.1,0.2,0,0.4,0.1,0.5l2,1.8L2.3,8.5C2.3,8.7,2.3,8.9,2.5,9C2.6,9,2.7,9.1,2.8,9.1C2.9,9.1,3,9,3,9l2-1.5l2,1.3
			C7.1,9,7.3,9,7.5,8.8c0.2-0.1,0.2-0.3,0.2-0.5L6.9,5.8l2-1.9C9.1,3.8,9.1,3.5,9,3.4z"/>
	</g>
</g>
</svg>
